<svg width="20" height="20" viewBox="0 0 20 20" fill="none" xmlns="http://www.w3.org/2000/svg" role="img" aria-label="Style Custom research panel">
<!-- The research panel as it is: a frame, its title bar, the tab rail down the
     left, and two rows of work. Zotero's 20-pixel grid, its 1.25-pixel line and
     the toolbar's ink (context-fill), drawn like the program's own sidebar
     icon so the two plugins' buttons sit among Zotero's as peers. The rows of
     work are Zotero's accent blue, as the bars in ZotPoP's lens are. -->
<path fill-rule="evenodd" clip-rule="evenodd" d="M2.25 3C1.55964 3 1 3.55964 1 4.25V15.75C1 16.4404 1.55964 17 2.25 17H17.75C18.4404 17 19 16.4404 19 15.75V4.25C19 3.55964 18.4404 3 17.75 3H2.25ZM2.25 7.25V15.75H6.25V7.25H2.25ZM7.5 7.25V15.75H17.75V7.25H7.5ZM17.75 6V4.25H2.25V6H17.75Z" fill="context-fill"/>
<path d="M9.5 9.25H15.75V10.5H9.5V9.25Z" fill="#4072E5"/>
<path d="M9.5 12.25H13.75V13.5H9.5V12.25Z" fill="#4072E5"/>
</svg>
