<svg width="20" height="20" viewBox="0 0 20 20" fill="none" xmlns="http://www.w3.org/2000/svg" role="img" aria-label="Search and import papers">
<!-- Zotero's own 20-pixel magnifier, line for line, in the toolbar's ink
     (context-fill), so it reads as one of the program's tools. Inside the
     lens, three bars rising on the same 1.25-pixel line, in Zotero's accent
     blue: the citation figures a search brings back, and the one touch of
     colour that finds the button among the grey ones. -->
<path fill-rule="evenodd" clip-rule="evenodd" d="M12.75 7.5C12.75 10.3995 10.3995 12.75 7.5 12.75C4.60051 12.75 2.25 10.3995 2.25 7.5C2.25 4.60051 4.60051 2.25 7.5 2.25C10.3995 2.25 12.75 4.60051 12.75 7.5ZM11.6331 12.5169C10.5097 13.4435 9.06986 14 7.5 14C3.91015 14 1 11.0899 1 7.5C1 3.91015 3.91015 1 7.5 1C11.0899 1 14 3.91015 14 7.5C14 9.06984 13.4435 10.5097 12.517 11.6331L19 18.1161L18.1162 19L11.6331 12.5169Z" fill="context-fill"/>
<path d="M4.75 8.25H6V10.25H4.75V8.25Z" fill="#4072E5"/>
<path d="M6.875 6.5H8.125V10.25H6.875V6.5Z" fill="#4072E5"/>
<path d="M9 4.75H10.25V10.25H9V4.75Z" fill="#4072E5"/>
</svg>
